<svg xmlns="http://www.w3.org/2000/svg" xmlns:xlink="http://www.w3.org/1999/xlink" width="1920" zoomAndPan="magnify" viewBox="0 0 1440 809.999993" height="1080" preserveAspectRatio="xMidYMid meet" version="1.0"><defs><clipPath id="208a11a9bc"><path d="M 1063 236 L 1440 236 L 1440 810 L 1063 810 Z M 1063 236 " clip-rule="nonzero"/></clipPath><clipPath id="459bedf607"><path d="M 988.347656 472.988281 L 1495.910156 235.796875 L 1694.046875 659.785156 L 1186.480469 896.976562 Z M 988.347656 472.988281 " clip-rule="nonzero"/></clipPath><clipPath id="6778559ec7"><path d="M 1186.457031 896.921875 L 1694.019531 659.730469 L 1495.886719 235.742188 L 988.324219 472.933594 Z M 1186.457031 896.921875 " clip-rule="nonzero"/></clipPath></defs><rect x="-144" width="1728" fill="#ffffff" y="-80.999999" height="971.999992" fill-opacity="1"/><rect x="-144" width="1728" fill="#ffffff" y="-80.999999" height="971.999992" fill-opacity="1"/><g clip-path="url(#208a11a9bc)"><g clip-path="url(#459bedf607)"><g clip-path="url(#6778559ec7)"><path fill="#ebebeb" d="M 1147.964844 697.964844 C 1147.046875 696.910156 1146.214844 696.03125 1145.296875 694.976562 C 1144.960938 694.710938 1144.714844 694.1875 1144.378906 693.921875 C 1144.042969 693.65625 1143.625 693.214844 1143.289062 692.949219 C 1142.453125 692.066406 1141.445312 691.265625 1140.609375 690.386719 C 1139.265625 689.320312 1137.835938 688.082031 1136.492188 687.015625 C 1135.054688 686.203125 1133.707031 685.136719 1132.363281 684.070312 C 1130.667969 683.167969 1128.976562 682.265625 1127.199219 681.1875 C 1125.414062 680.539062 1123.722656 679.632812 1122.109375 678.90625 C 1111.636719 675.535156 1100.851562 671.042969 1091.0625 664.601562 C 1076.886719 655.125 1067.441406 642.164062 1064.371094 628.34375 C 1057.386719 597.078125 1084.980469 566.808594 1114.207031 559.082031 C 1118.960938 557.921875 1123.703125 557.1875 1128.527344 556.628906 C 1128.527344 556.628906 1128.699219 556.546875 1128.699219 556.546875 C 1135.109375 554.398438 1141.941406 552.691406 1149.011719 551.503906 C 1149.1875 551.421875 1149.441406 551.515625 1149.613281 551.433594 C 1153.777344 549.914062 1158.113281 548.3125 1162.355469 546.964844 C 1165.472656 545.929688 1168.675781 545.070312 1171.957031 544.382812 C 1172.128906 544.304688 1172.128906 544.304688 1172.304688 544.222656 L 1175.699219 542.421875 C 1182.746094 538.917969 1189.007812 535.992188 1194.910156 533.660156 C 1201.214844 529.015625 1206.046875 524.851562 1210.695312 521.195312 C 1212.804688 519.363281 1214.648438 517.867188 1216.664062 516.289062 C 1219.523438 511.984375 1221.785156 507.75 1223.949219 503.773438 C 1224.945312 501.824219 1226.023438 500.050781 1227.019531 498.101562 C 1227.378906 497.511719 1227.738281 496.917969 1227.921875 496.410156 L 1228.457031 495.734375 C 1229.269531 494.296875 1230.160156 493.03125 1230.972656 491.59375 C 1231.074219 490.910156 1231.179688 490.226562 1231.28125 489.542969 C 1231.675781 487.664062 1231.894531 485.867188 1232.289062 483.988281 C 1232.402344 482.875 1232.773438 481.855469 1233.0625 480.660156 C 1234.230469 475.453125 1235.65625 470.339844 1237.761719 465.328125 C 1237.886719 457.429688 1238.554688 448.433594 1241.53125 439.839844 C 1241.144531 431.757812 1241.554688 422.667969 1244.183594 414.234375 C 1242.816406 394.535156 1247.085938 379.191406 1256.648438 368.371094 C 1269.394531 353.9375 1289.5 350.261719 1303.851562 349.699219 C 1313.222656 349.347656 1322.648438 350.023438 1331.648438 350.691406 C 1339.53125 351.246094 1347.417969 351.796875 1355.40625 351.667969 C 1420.769531 350.992188 1481.875 300.40625 1494.734375 236.347656 L 1496.101562 236.554688 C 1483.054688 301.125 1421.164062 352.292969 1355.199219 353.035156 C 1347.210938 353.167969 1339.070312 352.519531 1331.359375 351.886719 C 1322.359375 351.21875 1312.933594 350.539062 1303.738281 350.8125 C 1289.558594 351.296875 1270.054688 354.898438 1257.574219 368.996094 C 1248.640625 378.890625 1244.75 392.785156 1245.316406 410.316406 C 1247.808594 403.855469 1251.492188 397.683594 1257.296875 392.429688 C 1266.535156 384.085938 1279.296875 378.757812 1291.785156 374.195312 C 1296.46875 372.429688 1300.882812 371 1304.941406 370.164062 C 1309.523438 369.082031 1314.183594 368.175781 1319.875 367.210938 C 1327.980469 365.964844 1337.894531 364.511719 1349.429688 363.355469 C 1350.207031 363.207031 1350.890625 363.308594 1351.667969 363.160156 C 1356.921875 362.609375 1362.253906 362.238281 1367.585938 361.863281 L 1373.09375 361.410156 C 1379.808594 360.8125 1387.808594 360.253906 1395.660156 358.914062 C 1421.109375 354.4375 1444.917969 343.734375 1464.484375 328.023438 C 1485.984375 310.5625 1501.101562 287.605469 1506.992188 263.03125 L 1508.441406 263.414062 C 1502.460938 288.242188 1487.074219 311.535156 1465.398438 329.078125 C 1445.742188 345.042969 1421.757812 355.828125 1395.878906 360.292969 C 1387.855469 361.714844 1379.9375 362.449219 1373.140625 362.871094 L 1367.632812 363.324219 C 1362.300781 363.699219 1356.96875 364.074219 1351.714844 364.621094 C 1350.9375 364.769531 1350.253906 364.667969 1349.476562 364.820312 C 1337.941406 365.972656 1328.203125 367.347656 1319.921875 368.671875 C 1314.324219 369.382812 1309.488281 370.371094 1305.164062 371.542969 C 1301.1875 372.554688 1296.769531 373.984375 1292.003906 375.574219 C 1279.691406 380.058594 1267.101562 385.304688 1257.957031 393.390625 C 1251.445312 399.402344 1247.390625 406.59375 1245.132812 414.003906 C 1245.449219 418.304688 1246.007812 423.128906 1246.914062 427.789062 C 1249.683594 423.742188 1253.21875 419.96875 1257.773438 416.570312 C 1264.601562 411.683594 1273.039062 407.53125 1281.214844 403.710938 C 1285.734375 401.597656 1290.082031 399.566406 1294.09375 397.269531 C 1296.097656 396.121094 1298.101562 394.96875 1300.015625 394.078125 C 1302.019531 392.925781 1304.027344 391.777344 1305.9375 390.882812 C 1310.03125 388.761719 1313.949219 386.71875 1318.203125 384.941406 L 1319.421875 384.371094 C 1326.457031 381.296875 1334.457031 377.558594 1345.332031 375.441406 C 1346.109375 375.289062 1346.886719 375.140625 1347.664062 374.988281 C 1354.132812 373.871094 1361.53125 373.382812 1370.375 373.273438 C 1373.726562 373.1875 1376.984375 373.359375 1379.988281 373.441406 C 1384.882812 373.484375 1389.429688 373.691406 1393.984375 373.46875 C 1421.652344 372.828125 1446.648438 366.019531 1468.113281 353.019531 C 1493.070312 337.96875 1511.367188 315.011719 1518.472656 289.871094 L 1519.921875 290.25 C 1512.804688 315.824219 1494.070312 339.199219 1468.9375 354.332031 C 1447.296875 367.410156 1421.953125 374.382812 1394.03125 374.929688 C 1389.394531 374.976562 1384.929688 374.945312 1380.035156 374.902344 C 1376.859375 374.902344 1373.601562 374.730469 1370.421875 374.734375 C 1361.578125 374.84375 1354.179688 375.332031 1347.882812 376.367188 C 1347.105469 376.519531 1346.328125 376.671875 1345.554688 376.820312 C 1334.933594 379.03125 1326.851562 382.59375 1320.070312 385.761719 L 1318.855469 386.332031 C 1314.679688 388.28125 1310.679688 390.152344 1306.589844 392.277344 C 1304.757812 393.34375 1302.671875 394.320312 1300.664062 395.46875 C 1298.835938 396.535156 1296.828125 397.683594 1294.742188 398.660156 C 1290.648438 400.785156 1286.382812 402.988281 1281.863281 405.101562 C 1273.691406 408.921875 1265.425781 412.996094 1258.597656 417.878906 C 1253.695312 421.441406 1250.066406 425.46875 1247.289062 429.945312 C 1248.054688 433.402344 1248.820312 436.855469 1249.671875 440.484375 C 1250.136719 442.386719 1250.601562 444.285156 1251.320312 446.28125 C 1253.429688 444.449219 1256.046875 442.800781 1258.667969 441.152344 C 1263.199219 438.609375 1268.242188 436.253906 1273.378906 433.640625 C 1281.726562 429.742188 1290.164062 425.585938 1296.816406 420.78125 C 1301.023438 417.542969 1304.457031 414.457031 1307.273438 411.871094 C 1308.328125 410.953125 1309.300781 409.863281 1310.355469 408.949219 C 1312.730469 406.777344 1314.757812 404.769531 1316.960938 402.683594 C 1321.445312 398.679688 1326.8125 393.84375 1334.636719 390.183594 C 1336.722656 389.210938 1339.238281 388.246094 1341.664062 387.539062 C 1342.4375 387.386719 1343.308594 386.980469 1344.085938 386.828125 C 1350.914062 385.121094 1359.34375 384.570312 1368.34375 385.238281 C 1374 385.5625 1379.472656 386.394531 1384.691406 387.132812 C 1387.601562 387.46875 1390.339844 387.882812 1393.078125 388.300781 C 1423.121094 391.84375 1449.140625 388.582031 1472.765625 378.390625 C 1500.992188 366.257812 1522.640625 343.21875 1531.070312 316.820312 L 1532.519531 317.203125 C 1524 343.855469 1502.085938 367.230469 1473.335938 379.605469 C 1449.882812 389.71875 1422.914062 393.210938 1393.042969 389.585938 C 1390.304688 389.171875 1387.394531 388.835938 1384.660156 388.417969 C 1379.441406 387.679688 1374.046875 387.023438 1368.480469 386.445312 C 1359.65625 385.695312 1351.484375 386.339844 1344.65625 388.046875 C 1343.878906 388.199219 1342.925781 388.429688 1342.230469 388.753906 C 1330.546875 392.308594 1323.589844 398.738281 1318.050781 403.65625 C 1315.847656 405.746094 1313.820312 407.75 1311.445312 409.921875 C 1310.390625 410.835938 1309.417969 411.929688 1308.363281 412.84375 C 1305.546875 415.433594 1302.195312 418.691406 1297.816406 422.011719 C 1291.242188 426.988281 1282.550781 431.050781 1274.285156 435.125 C 1269.066406 437.5625 1264.023438 439.921875 1259.574219 442.636719 C 1256.699219 444.191406 1253.988281 446.09375 1251.703125 448.007812 C 1251.773438 448.613281 1252.015625 449.132812 1252.167969 449.910156 C 1253.738281 455.53125 1255.210938 461.410156 1256.605469 467.113281 C 1257.648438 466.628906 1258.519531 466.222656 1259.5625 465.734375 C 1261.648438 464.757812 1263.992188 463.875 1266.25 462.820312 C 1277.972656 457.976562 1291.003906 452.3125 1299.542969 444.296875 C 1303.773438 440.199219 1306.542969 436.152344 1308.429688 432.9375 C 1310.132812 430.238281 1311.664062 427.617188 1313.019531 425.074219 C 1313.828125 423.636719 1314.816406 422.117188 1315.542969 420.503906 C 1319.773438 413.234375 1324.964844 405.300781 1335.570312 400.34375 C 1336.265625 400.015625 1336.960938 399.691406 1337.832031 399.285156 C 1338.699219 398.878906 1339.476562 398.726562 1340.347656 398.320312 C 1347.535156 396.023438 1356.648438 395.578125 1366.0625 396.683594 C 1373.078125 397.644531 1379.644531 399.449219 1386.042969 400.90625 C 1388.003906 401.472656 1389.882812 401.867188 1391.84375 402.433594 C 1423.921875 410.324219 1451.820312 410.636719 1476.917969 403.144531 C 1508.164062 393.839844 1533.5 370.980469 1543.074219 343.414062 L 1544.347656 343.878906 C 1534.496094 372.210938 1509.335938 394.984375 1477.140625 404.523438 C 1451.867188 412.097656 1423.792969 411.867188 1391.289062 403.964844 C 1389.328125 403.398438 1387.449219 403.003906 1385.488281 402.4375 C 1379.179688 400.726562 1372.699219 399.09375 1365.683594 398.136719 C 1356.613281 396.863281 1347.582031 397.484375 1340.566406 399.703125 C 1339.617188 399.933594 1338.921875 400.257812 1338.050781 400.664062 C 1326.25 405.332031 1320.621094 413.683594 1316.472656 421.132812 C 1315.660156 422.570312 1314.851562 424.007812 1313.867188 425.527344 C 1312.511719 428.066406 1310.980469 430.6875 1309.277344 433.390625 C 1307.308594 436.429688 1304.445312 440.734375 1300.042969 444.910156 C 1291.410156 453.183594 1278.125 458.753906 1266.484375 463.769531 C 1264.140625 464.652344 1261.882812 465.710938 1259.796875 466.683594 C 1258.75 467.171875 1257.707031 467.660156 1256.664062 468.148438 C 1258.363281 475.40625 1259.628906 482.652344 1259.957031 489.699219 C 1259.957031 489.699219 1260.132812 489.621094 1260.132812 489.621094 C 1276.5 484.300781 1292.988281 477.867188 1301.945312 467.113281 C 1305.222656 463.25 1307.574219 458.761719 1309.519531 453.40625 C 1310.910156 449.578125 1311.777344 445.992188 1312.726562 442.585938 C 1313.109375 441.136719 1313.410156 439.511719 1313.964844 437.980469 C 1316.617188 428.691406 1321.210938 417.222656 1333.824219 411.113281 C 1334 411.035156 1334.171875 410.953125 1334.171875 410.953125 C 1334.867188 410.628906 1335.5625 410.300781 1336.433594 409.894531 C 1343.980469 407.003906 1353.695312 406.488281 1363.519531 408.46875 C 1371.636719 409.96875 1378.863281 412.738281 1386.007812 415.332031 C 1387.535156 415.886719 1388.894531 416.523438 1390.34375 416.90625 C 1425.042969 429.503906 1453.882812 433.1875 1480.898438 427.976562 C 1508.167969 422.863281 1541.785156 405.035156 1554.996094 369.835938 L 1556.269531 370.296875 C 1542.875 406.007812 1508.734375 424.078125 1481.117188 429.359375 C 1453.847656 434.472656 1424.835938 430.871094 1389.878906 418.183594 C 1388.351562 417.625 1386.992188 416.988281 1385.542969 416.605469 C 1378.574219 413.933594 1371.171875 411.246094 1363.230469 409.660156 C 1353.664062 407.777344 1344.203125 408.382812 1337.003906 411.113281 C 1336.132812 411.519531 1335.183594 411.753906 1334.566406 412.25 C 1322.476562 418.113281 1317.890625 429.152344 1315.332031 438.1875 C 1314.953125 439.636719 1314.570312 441.085938 1314.015625 442.617188 C 1313.144531 446.203125 1312.105469 449.867188 1310.714844 453.695312 C 1308.675781 459.308594 1306.246094 463.621094 1302.871094 467.738281 C 1293.648438 478.828125 1276.988281 485.34375 1260.273438 490.824219 C 1260.097656 490.90625 1259.925781 490.988281 1259.75 491.070312 C 1260.054688 498.976562 1259.328125 506.945312 1256.804688 514.691406 C 1258.105469 514.296875 1259.308594 514.15625 1260.609375 513.761719 C 1275.554688 510.378906 1295.132812 503.769531 1304.425781 490.105469 C 1305.320312 488.84375 1306.128906 487.402344 1306.765625 486.046875 C 1307.066406 481.246094 1307.792969 476.457031 1309.542969 472.039062 C 1309.886719 468.699219 1310.488281 465.453125 1311.601562 462.390625 C 1311.914062 460.335938 1312.050781 458.367188 1312.617188 456.40625 C 1312.710938 456.152344 1312.722656 455.722656 1312.640625 455.546875 C 1314.011719 439.441406 1319.792969 428.6875 1329.992188 422.863281 C 1330.6875 422.539062 1331.382812 422.214844 1332.078125 421.886719 C 1332.253906 421.808594 1332.601562 421.644531 1332.773438 421.5625 C 1340.679688 418.082031 1351.082031 417.667969 1361.320312 420.085938 C 1370.195312 422.296875 1378.082031 426.027344 1385.792969 429.835938 C 1386.894531 430.382812 1387.996094 430.925781 1389.355469 431.5625 C 1425.980469 449.191406 1456.457031 455.925781 1485.292969 453.253906 C 1522.824219 449.695312 1554.839844 427.53125 1567.242188 396.949219 L 1568.519531 397.414062 C 1556.011719 428.679688 1523.476562 451.089844 1485.339844 454.714844 C 1456.332031 457.464844 1425.519531 450.46875 1388.71875 432.921875 C 1387.617188 432.375 1386.511719 431.832031 1385.15625 431.195312 C 1377.523438 427.558594 1369.8125 423.746094 1360.941406 421.535156 C 1350.957031 419.210938 1340.984375 419.632812 1333.425781 422.953125 C 1332.554688 423.359375 1331.6875 423.765625 1330.816406 424.171875 C 1320.617188 430 1316.75 439.855469 1315.140625 448.660156 C 1317.699219 442.800781 1321.511719 438.265625 1326.578125 435.050781 C 1327.542969 434.390625 1328.410156 433.984375 1329.453125 433.496094 C 1329.628906 433.414062 1329.800781 433.332031 1329.976562 433.253906 C 1338.148438 429.433594 1348.722656 428.941406 1359.289062 432.054688 C 1368.832031 434.796875 1377.289062 439.742188 1385.234375 444.503906 L 1388.109375 446.128906 C 1412.292969 460.25 1449.234375 479.003906 1489.609375 478.355469 C 1523.027344 477.78125 1563.75 460.65625 1579.5 423.636719 L 1580.859375 424.273438 C 1564.921875 461.804688 1523.503906 479.253906 1489.65625 479.816406 C 1449.027344 480.371094 1411.910156 461.699219 1387.472656 447.484375 L 1384.597656 445.863281 C 1376.476562 441.183594 1368.195312 436.15625 1358.90625 433.503906 C 1348.421875 430.5625 1338.019531 430.976562 1330.105469 434.886719 C 1329.234375 435.292969 1328.273438 435.957031 1327.402344 436.363281 C 1320.585938 440.816406 1316.289062 447.488281 1314.324219 456.878906 C 1314.402344 457.054688 1314.230469 457.136719 1314.3125 457.308594 C 1316.304688 453.414062 1319.144531 449.96875 1322.992188 447.320312 C 1323.953125 446.660156 1324.914062 446 1325.957031 445.511719 C 1326.480469 445.265625 1327 445.023438 1327.347656 444.859375 C 1335.695312 440.960938 1346.605469 440.734375 1357.160156 444.277344 C 1367.203125 447.632812 1376.148438 453.625 1384.660156 459.601562 L 1387.109375 461.214844 C 1412.582031 478.546875 1451.207031 501.808594 1493.992188 504.058594 C 1528.898438 505.757812 1574.308594 490.042969 1591.65625 451.003906 L 1593.011719 451.644531 C 1575.304688 491.273438 1529.199219 507.3125 1493.867188 505.601562 C 1450.648438 503.339844 1411.769531 479.984375 1386.296875 462.652344 L 1383.851562 461.042969 C 1375.417969 455.238281 1366.648438 449.164062 1356.6875 445.980469 C 1345.878906 442.347656 1334.699219 442.910156 1326.597656 447.332031 C 1325.554688 447.820312 1324.765625 448.398438 1323.804688 449.058594 C 1319.074219 452.542969 1315.863281 457.007812 1314.011719 462.109375 C 1313.976562 463.398438 1313.945312 464.683594 1313.65625 465.878906 C 1315.171875 463.6875 1317.027344 461.761719 1319.136719 459.925781 C 1320.804688 458.511719 1322.636719 457.445312 1324.550781 456.550781 C 1334.460938 451.917969 1346.105469 453.257812 1354.777344 456.40625 C 1365.496094 460.296875 1374.660156 467.667969 1383.578125 474.515625 L 1385.851562 476.207031 C 1414.457031 498.429688 1453.179688 524.617188 1498.042969 529.496094 C 1535.542969 533.582031 1584.433594 519.421875 1603.730469 478.203125 L 1605.085938 478.839844 C 1585.605469 520.570312 1535.847656 535.136719 1497.914062 531.039062 C 1452.539062 525.972656 1413.566406 499.695312 1384.960938 477.472656 L 1382.6875 475.78125 C 1373.765625 468.929688 1364.683594 461.734375 1354.222656 457.9375 C 1344.273438 454.324219 1330.136719 453.09375 1319.878906 461.0625 C 1317.074219 463.222656 1314.769531 465.996094 1313.144531 468.871094 C 1313.042969 469.554688 1313.019531 470.414062 1312.914062 471.097656 C 1312.894531 471.957031 1312.953125 472.988281 1313.011719 474.019531 C 1313.046875 475.910156 1313.164062 477.972656 1313.371094 479.78125 C 1313.664062 484.941406 1314.121094 490.449219 1313.636719 495.761719 C 1313.589844 497.476562 1313.464844 499.019531 1313.082031 500.46875 C 1313.886719 505.8125 1314.6875 511.15625 1314.886719 516.574219 C 1315.050781 520.097656 1314.960938 523.53125 1314.535156 526.695312 C 1317.054688 538.441406 1318.371094 550.324219 1314.042969 561.457031 C 1306.121094 581.683594 1282.113281 590.152344 1263.152344 589.476562 C 1245.226562 588.746094 1228.0625 581.933594 1211.582031 575.230469 C 1209.203125 574.222656 1206.90625 573.390625 1204.609375 572.554688 C 1203.847656 572.277344 1203.082031 572 1202.234375 571.546875 C 1183.445312 583.929688 1164.214844 596.730469 1153.488281 615.9375 C 1141.40625 637.683594 1142.625 662.960938 1147.644531 684.132812 C 1182.027344 692.429688 1217.304688 696.28125 1252.691406 695.847656 C 1256.042969 695.761719 1259.394531 695.679688 1262.746094 695.597656 C 1275.894531 695.171875 1289.554688 694.933594 1302.632812 697.082031 C 1321.617188 700.078125 1337.113281 708.300781 1346.417969 720.054688 C 1357.546875 734.34375 1360.933594 755.644531 1355.296875 777.132812 C 1350.320312 796.40625 1339.558594 813.722656 1329.246094 830.195312 L 1328.0625 829.476562 C 1338.375 813.007812 1349.042969 795.945312 1354.019531 776.667969 C 1359.390625 755.515625 1356.246094 734.738281 1345.28125 720.796875 C 1336.3125 709.308594 1320.980469 701.433594 1302.425781 698.453125 C 1289.347656 696.300781 1275.769531 696.714844 1262.792969 697.058594 C 1259.441406 697.140625 1256.089844 697.222656 1252.738281 697.308594 C 1217.351562 697.742188 1182.332031 693.980469 1148.027344 685.859375 C 1148.191406 686.207031 1148.179688 686.636719 1148.421875 687.160156 C 1176.953125 696.070312 1209.015625 701.214844 1244.347656 702.921875 C 1247.351562 703.003906 1250.355469 703.082031 1253.4375 703.335938 C 1265.453125 703.65625 1277.71875 704.066406 1289.757812 706.703125 C 1301.96875 709.257812 1318.632812 715.453125 1329.238281 729.988281 C 1339.265625 743.734375 1342.164062 763.992188 1336.992188 784.203125 C 1333.082031 802.132812 1323.292969 818.359375 1312.898438 834.65625 L 1311.714844 833.9375 C 1322.46875 817.050781 1331.550781 801.578125 1336.050781 784.007812 C 1341.210938 764.222656 1338.304688 744.398438 1328.441406 730.996094 C 1318.078125 716.984375 1301.667969 710.882812 1289.886719 708.335938 C 1278.101562 705.792969 1265.660156 705.464844 1253.820312 705.0625 C 1250.820312 704.984375 1247.816406 704.90625 1244.730469 704.652344 C 1209.65625 703.035156 1177.765625 697.8125 1149.316406 689.070312 C 1149.480469 689.417969 1149.46875 689.847656 1149.628906 690.195312 C 1173.253906 699.496094 1200.566406 705.800781 1236.351562 709.839844 C 1239.007812 710.082031 1241.660156 710.324219 1244.398438 710.738281 C 1255.273438 711.800781 1266.40625 712.953125 1277.226562 716.160156 C 1288.222656 719.285156 1302.984375 725.945312 1312.410156 739.761719 C 1321.414062 753.136719 1323.835938 771.921875 1319.035156 791.113281 C 1314.53125 808.683594 1304.742188 824.910156 1295.960938 838.757812 L 1294.777344 838.039062 C 1303.917969 823.597656 1313.257812 808.21875 1317.582031 790.730469 C 1322.375 771.96875 1319.941406 753.613281 1311.097656 740.585938 C 1302.09375 727.207031 1287.410156 720.722656 1276.671875 717.691406 C 1265.933594 714.660156 1254.800781 713.503906 1244.097656 712.363281 C 1241.441406 712.121094 1238.785156 711.878906 1236.050781 711.460938 C 1200.695312 707.433594 1173.464844 701.304688 1150.09375 692.097656 C 1150.257812 692.445312 1150.246094 692.875 1150.328125 693.046875 C 1174.566406 705.023438 1201.785156 711.585938 1227.75 716.824219 C 1230.3125 717.320312 1232.621094 717.726562 1235.183594 718.222656 C 1244.75 720.109375 1254.492188 721.910156 1264.015625 725.511719 C 1273.535156 729.113281 1286.828125 736.25 1294.894531 749.429688 C 1302.796875 762.261719 1304.730469 780 1300.390625 797.917969 C 1296.261719 814.464844 1287.539062 829.347656 1278.765625 842.769531 L 1277.585938 842.050781 C 1286.355469 828.628906 1294.8125 814.085938 1299.023438 797.710938 C 1303.351562 780.222656 1301.488281 763.085938 1293.664062 750.425781 C 1285.761719 737.59375 1272.980469 730.644531 1263.457031 727.042969 C 1254.191406 723.535156 1244.371094 721.558594 1234.882812 719.847656 C 1232.320312 719.347656 1230.011719 718.945312 1227.449219 718.449219 C 1201.742188 713.300781 1174.953125 706.753906 1150.875 695.125 C 1151.035156 695.472656 1151.117188 695.644531 1151.105469 696.074219 C 1172.644531 709.523438 1197.175781 717.128906 1219.230469 723.984375 C 1221.273438 724.722656 1223.40625 725.210938 1225.449219 725.949219 C 1233.878906 728.578125 1242.484375 731.125 1250.789062 735.292969 C 1262.652344 741.191406 1271.875 749.59375 1277.367188 759.527344 C 1284.25 771.988281 1285.613281 788.511719 1281.65625 804.976562 C 1277.792969 821.191406 1269.082031 835.640625 1261.746094 846.695312 L 1260.5625 845.976562 C 1267.804688 835.179688 1276.519531 820.726562 1280.554688 804.433594 C 1284.5 788.394531 1283.042969 772.128906 1276.324219 760.015625 C 1270.996094 750.425781 1262.027344 742.117188 1250.417969 736.316406 C 1242.195312 732.320312 1233.589844 729.773438 1225.332031 727.0625 C 1223.292969 726.324219 1221.15625 725.835938 1219.117188 725.097656 C 1197.488281 718.253906 1173.386719 710.660156 1152.09375 697.730469 C 1152.175781 697.90625 1152.253906 698.078125 1152.335938 698.253906 C 1168.65625 710.964844 1187.574219 719.710938 1205.898438 728.09375 L 1211.070312 730.550781 C 1212.683594 731.28125 1214.296875 732.007812 1215.988281 732.914062 C 1223.285156 736.28125 1231.007812 739.664062 1238.097656 744.402344 C 1248.398438 751.03125 1255.902344 759.386719 1260.371094 768.949219 C 1265.980469 780.949219 1267.113281 796.519531 1263.539062 811.539062 C 1260.460938 823.992188 1254.632812 836.460938 1244.984375 850.71875 L 1243.800781 850 C 1253.195312 835.652344 1258.929688 823.4375 1262.007812 810.984375 C 1265.488281 796.21875 1264.519531 780.996094 1258.898438 769.425781 C 1254.511719 760.035156 1247.167969 752.027344 1237.125 745.492188 C 1230.117188 740.929688 1222.820312 737.558594 1215.273438 734.097656 C 1213.660156 733.367188 1212.046875 732.636719 1210.355469 731.734375 L 1205.179688 729.277344 C 1187.273438 721.332031 1168.949219 712.949219 1152.871094 700.757812 C 1152.871094 700.757812 1152.871094 700.757812 1152.953125 700.929688 C 1165.167969 713.019531 1179.773438 722.507812 1193.867188 731.8125 C 1196.90625 733.78125 1199.6875 735.65625 1202.472656 737.535156 L 1205.847656 739.769531 C 1212.597656 744.242188 1218.757812 748.355469 1224.882812 753.757812 C 1233.1875 761.101562 1239.234375 769.507812 1242.855469 778.617188 C 1247.445312 790.246094 1248.101562 804.347656 1244.894531 818.34375 C 1242.003906 830.289062 1236.363281 842.246094 1227.871094 854.902344 L 1226.523438 853.835938 C 1235.097656 841.355469 1240.644531 829.652344 1243.363281 817.789062 C 1246.558594 804.21875 1245.808594 790.375 1241.386719 779.09375 C 1237.925781 770.332031 1231.960938 762.101562 1223.910156 754.847656 C 1217.867188 749.621094 1211.625 745.332031 1204.957031 741.035156 L 1201.578125 738.800781 C 1198.796875 736.921875 1195.757812 734.953125 1192.972656 733.074219 C 1179.890625 724.570312 1166.46875 715.800781 1154.820312 704.929688 C 1163.546875 715.894531 1173.765625 725.527344 1183.652344 734.890625 C 1187.085938 738.15625 1190.519531 741.425781 1193.871094 744.519531 L 1195.042969 745.667969 C 1200.902344 751.402344 1206.425781 756.875 1211.75 763.28125 C 1218.238281 771.269531 1222.820312 779.71875 1225.421875 788.460938 C 1228.734375 799.625 1229.15625 812.773438 1226.253906 825.148438 C 1223.628906 836.757812 1218.347656 848.121094 1210.675781 858.910156 L 1209.410156 858.019531 C 1217.082031 847.230469 1222.191406 835.945312 1224.976562 824.683594 C 1227.789062 812.566406 1227.527344 799.765625 1224.21875 788.601562 C 1221.695312 780.03125 1217.191406 771.757812 1210.789062 763.945312 C 1205.71875 757.628906 1200.195312 752.15625 1194.335938 746.421875 L 1193.164062 745.273438 C 1189.8125 742.179688 1186.550781 738.832031 1182.945312 735.644531 C 1173.894531 727.160156 1164.765625 718.503906 1156.691406 708.929688 C 1162.445312 718.527344 1168.992188 727.546875 1175.363281 736.644531 C 1178.84375 741.375 1182.488281 746.449219 1185.792969 751.261719 C 1191.003906 758.785156 1195.125 765.332031 1198.882812 772.472656 C 1203.375 781.179688 1206.417969 789.503906 1208.175781 797.792969 C 1210.371094 808.839844 1210.320312 820.519531 1207.878906 831.617188 C 1205.4375 842.714844 1200.609375 853.234375 1193.75 862.582031 L 1192.484375 861.691406 C 1199.171875 852.421875 1203.90625 842.160156 1206.253906 831.316406 C 1208.605469 820.472656 1208.738281 808.96875 1206.621094 798.09375 C 1204.867188 789.804688 1201.902344 781.65625 1197.492188 773.125 C 1193.8125 766.15625 1189.519531 759.6875 1184.484375 752.085938 C 1181.175781 747.273438 1177.53125 742.199219 1174.050781 737.46875 C 1168.585938 729.851562 1163.121094 722.238281 1158.015625 714.03125 C 1161.160156 721.671875 1164.5625 729.402344 1167.882812 736.960938 C 1174.453125 751.476562 1181.011719 766.417969 1185.753906 782 C 1195.429688 815.402344 1192.210938 846.140625 1176.636719 866.765625 L 1175.371094 865.875 C 1190.585938 845.839844 1193.710938 815.355469 1184.105469 782.558594 C 1179.621094 767.070312 1172.890625 752.207031 1166.316406 737.691406 C 1161.777344 727.527344 1157.160156 717.1875 1153.234375 706.519531 C 1152.328125 705.035156 1151.679688 703.644531 1150.773438 702.160156 C 1149.949219 700.851562 1149.042969 699.367188 1147.964844 697.964844 Z M 1203.21875 570.027344 C 1208.375 566.558594 1213.441406 563.34375 1218.34375 559.78125 C 1215.957031 559.203125 1213.820312 558.71875 1211.433594 558.140625 L 1210.75 558.035156 C 1206.019531 561.515625 1201.289062 564.996094 1196.65625 568.222656 C 1198.695312 568.964844 1200.738281 569.707031 1202.605469 570.527344 C 1202.695312 570.273438 1202.871094 570.191406 1203.21875 570.027344 Z M 1311.433594 517.339844 C 1311.128906 515.785156 1310.734375 514.488281 1310.433594 512.933594 C 1309.980469 513.78125 1309.53125 514.628906 1309.078125 515.472656 C 1301.6875 528.671875 1284.171875 538.34375 1262.375 541.113281 C 1254.535156 542.023438 1247.394531 542.605469 1241.027344 543.039062 C 1235.371094 549.070312 1228.707031 554.304688 1221.789062 559.445312 C 1234.589844 562.359375 1247.835938 564.855469 1263.046875 564.316406 C 1279.722656 563.726562 1302.152344 556.421875 1310.621094 538.269531 C 1312.253906 534.964844 1313.121094 531.382812 1313.828125 527.449219 C 1312.804688 523.902344 1312.117188 520.621094 1311.433594 517.339844 Z M 1239.058594 542.898438 C 1235.277344 542.972656 1231.75 543.136719 1228.320312 543.042969 C 1223.382812 547.894531 1217.933594 552.558594 1212.152344 556.957031 C 1214.796875 557.625 1217.183594 558.207031 1219.828125 558.875 C 1226.828125 553.910156 1233.320312 548.757812 1239.058594 542.898438 Z M 1238.945312 466.046875 C 1238.914062 467.332031 1238.960938 468.792969 1238.925781 470.082031 C 1239.042969 472.144531 1238.902344 474.117188 1239.019531 476.179688 C 1239.070312 477.640625 1239.035156 478.929688 1239.082031 480.390625 C 1241.027344 478.207031 1243.3125 476.292969 1245.769531 474.296875 C 1245.347656 470.679688 1244.675781 466.96875 1244 463.261719 C 1243.789062 461.453125 1243.40625 459.722656 1243.199219 457.914062 C 1241.667969 460.535156 1240.21875 463.332031 1238.945312 466.046875 Z M 1239.453125 482.546875 C 1239.46875 488.472656 1239.5625 494.570312 1238.800781 500.644531 C 1241.421875 499 1244.472656 497.363281 1247.773438 495.816406 C 1247.863281 489.207031 1247.351562 482.667969 1246.328125 475.945312 C 1243.519531 478.101562 1241.320312 480.191406 1239.453125 482.546875 Z M 1232.152344 492.3125 C 1231.253906 497.183594 1230.175781 502.136719 1228.578125 507.332031 C 1231.117188 505.507812 1233.828125 503.605469 1237.0625 501.460938 C 1237.90625 495.554688 1237.972656 489.804688 1238.039062 484.054688 C 1235.558594 486.90625 1233.683594 489.691406 1232.152344 492.3125 Z M 1172.429688 545.855469 C 1169.476562 547.238281 1166.601562 548.792969 1163.472656 550.257812 C 1165.789062 550.230469 1168.109375 550.207031 1170.253906 550.265625 C 1170.949219 549.9375 1171.5625 549.441406 1172.085938 549.195312 C 1175.054688 547.386719 1177.5 545.820312 1179.945312 544.253906 C 1177.441406 544.789062 1174.9375 545.320312 1172.429688 545.855469 Z M 1143.921875 555.578125 C 1143.226562 555.902344 1142.707031 556.144531 1142.011719 556.472656 C 1144.15625 556.527344 1146.554688 556.675781 1148.78125 556.910156 C 1151.925781 555.015625 1154.625 553.542969 1156.804688 552.3125 C 1154.566406 552.511719 1152.328125 552.707031 1150.171875 553.082031 C 1148.003906 553.882812 1145.835938 554.683594 1143.921875 555.578125 Z M 1129.082031 558.273438 C 1100.574219 567.996094 1073.304688 595.78125 1076.8125 625.496094 C 1077.382812 629.890625 1078.554688 634.214844 1080.332031 638.472656 C 1083.886719 646.980469 1090.023438 655.128906 1098.085938 661.953125 C 1104.128906 667.179688 1111.136719 671.746094 1119.183594 675.820312 C 1113.199219 671.628906 1107.746094 666.761719 1102.910156 661.394531 C 1095.902344 653.652344 1090.726562 644.84375 1088.296875 636.019531 C 1087.042969 631.523438 1086.472656 627.128906 1086.421875 622.488281 C 1086.292969 595.007812 1110.722656 570.667969 1135.96875 557.597656 C 1133.386719 557.960938 1131.320312 558.078125 1129.082031 558.273438 Z M 1186.609375 564.867188 C 1191.074219 561.722656 1195.28125 558.484375 1199.394531 555.5 C 1196.832031 555.003906 1194.015625 554.414062 1191.277344 554 C 1188.125 556.320312 1184.972656 558.640625 1181.726562 561.214844 C 1180.9375 561.796875 1180.324219 562.296875 1179.535156 562.875 C 1181.84375 563.28125 1184.140625 564.113281 1186.609375 564.867188 Z M 1210.445312 556.480469 C 1216.054688 552.164062 1221.585938 547.675781 1226.429688 543.082031 C 1222.996094 542.988281 1219.820312 542.992188 1216.734375 542.738281 C 1212.503906 546.832031 1207.765625 550.742188 1202.769531 554.5625 C 1203.964844 554.851562 1205.078125 554.964844 1206.097656 555.335938 C 1207.375 555.800781 1208.824219 556.179688 1210.445312 556.480469 Z M 1231.046875 524.398438 C 1230.953125 524.652344 1230.6875 524.988281 1230.59375 525.246094 C 1227.441406 530.742188 1223.351562 536.042969 1217.976562 541.3125 C 1220.980469 541.390625 1224.238281 541.5625 1227.667969 541.652344 C 1228.550781 540.816406 1229.257812 540.0625 1230.136719 539.230469 C 1235.445312 533.359375 1239.292969 527.535156 1242.117188 521.34375 C 1238.570312 522.363281 1235.195312 523.304688 1231.996094 524.164062 C 1231.566406 524.152344 1231.394531 524.234375 1231.046875 524.398438 Z M 1218.59375 527.675781 C 1218.0625 528.347656 1217.609375 529.195312 1216.902344 529.949219 C 1214.144531 533.566406 1210.785156 537.257812 1206.820312 541.015625 C 1208.28125 540.96875 1209.570312 541.003906 1211.109375 541.128906 L 1214.625 541.394531 C 1215.054688 541.40625 1215.484375 541.417969 1215.910156 541.425781 C 1221.464844 536.078125 1225.726562 530.695312 1229.050781 525.117188 C 1225.851562 525.976562 1222.652344 526.835938 1219.625 527.617188 Z M 1214.589844 542.679688 L 1211.15625 542.589844 C 1209.1875 542.453125 1207.296875 542.488281 1205.40625 542.523438 C 1204.351562 543.441406 1203.125 544.4375 1201.894531 545.433594 C 1198.996094 547.847656 1195.925781 550.34375 1192.597656 552.746094 C 1195.335938 553.160156 1197.980469 553.832031 1200.542969 554.328125 C 1205.710938 550.429688 1210.277344 546.601562 1214.589844 542.679688 Z M 1170.730469 551.738281 C 1167.414062 553.710938 1164.007812 555.9375 1160.597656 558.164062 C 1163.160156 558.664062 1165.726562 559.160156 1168.289062 559.65625 C 1171.789062 557.175781 1175.289062 554.691406 1178.617188 552.289062 C 1178.617188 552.289062 1178.789062 552.207031 1178.789062 552.207031 C 1176.132812 551.964844 1173.558594 551.898438 1170.730469 551.738281 Z M 1134.839844 681.21875 C 1135.351562 681.402344 1135.78125 681.414062 1136.035156 681.507812 C 1131.695312 673.578125 1128.234375 664.8125 1125.75 654.957031 C 1123.03125 644.152344 1122.699219 633.925781 1124.839844 624.453125 C 1125.902344 619.929688 1127.398438 615.417969 1129.574219 611.011719 C 1138.574219 592.1875 1157.257812 577.3125 1176.09375 563.214844 C 1173.625 562.460938 1171.058594 561.964844 1168.417969 561.292969 C 1147.84375 576.203125 1127.210938 593.257812 1119.871094 614.273438 C 1118.296875 618.613281 1117.40625 623.054688 1116.863281 627.332031 C 1115.847656 636.492188 1117.394531 646.152344 1121.085938 655.867188 C 1125.035156 665.671875 1129.621094 674.125 1134.839844 681.21875 Z M 1136.339844 683.058594 C 1136.339844 683.058594 1136.417969 683.234375 1136.417969 683.234375 C 1136.675781 683.328125 1136.929688 683.417969 1137.183594 683.511719 C 1137.105469 683.339844 1137.105469 683.339844 1137.023438 683.164062 C 1136.847656 683.246094 1136.59375 683.152344 1136.339844 683.058594 Z M 1128.960938 679.515625 C 1123.542969 673.363281 1118.578125 666.359375 1114.15625 658.257812 C 1109.164062 648.9375 1106.667969 639.511719 1106.394531 630.316406 C 1106.253906 625.933594 1106.886719 621.398438 1107.777344 616.957031 C 1113.125 593.488281 1135.539062 573.902344 1156.703125 559.351562 C 1154.140625 558.851562 1151.484375 558.609375 1148.832031 558.371094 C 1131.117188 568.976562 1101.339844 590.941406 1098.167969 619.96875 C 1097.707031 624.421875 1097.765625 628.628906 1098.335938 633.023438 C 1099.652344 641.730469 1103.449219 650.761719 1109.238281 659.074219 C 1114.785156 666.863281 1121.214844 673.816406 1128.277344 679.410156 C 1128.707031 679.421875 1128.960938 679.515625 1128.960938 679.515625 Z M 1109.320312 617.085938 C 1108.347656 621.351562 1107.886719 625.804688 1108.03125 630.1875 C 1108.21875 639.210938 1110.808594 648.378906 1115.546875 657.609375 C 1120.292969 666.40625 1125.585938 674.101562 1131.6875 680.359375 C 1131.941406 680.453125 1132.371094 680.464844 1132.625 680.558594 C 1127.742188 673.730469 1123.574219 665.71875 1120.125 656.527344 C 1116.269531 646.464844 1114.816406 636.550781 1115.75 627.214844 C 1116.210938 622.765625 1117.277344 618.242188 1118.769531 613.730469 C 1126.109375 592.714844 1146.3125 575.648438 1166.710938 560.816406 C 1164.148438 560.320312 1161.585938 559.824219 1158.847656 559.40625 C 1137.511719 574.039062 1114.574219 593.867188 1109.320312 617.085938 Z M 1179.4375 553.597656 C 1176.460938 555.839844 1173.226562 557.984375 1170.074219 560.304688 C 1172.636719 560.804688 1175.105469 561.554688 1177.578125 562.308594 C 1178.714844 561.566406 1179.59375 560.730469 1180.730469 559.988281 C 1183.535156 557.828125 1186.421875 555.84375 1189.226562 553.6875 C 1186.488281 553.269531 1183.753906 552.855469 1181.097656 552.613281 C 1180.574219 552.855469 1180.054688 553.101562 1179.4375 553.597656 Z M 1190.894531 552.269531 C 1194.488281 549.53125 1197.90625 546.875 1201.070312 544.125 C 1201.859375 543.546875 1202.566406 542.792969 1203.179688 542.292969 C 1200.175781 542.214844 1197.253906 542.308594 1194.414062 542.574219 C 1192.222656 544.234375 1189.941406 546.148438 1187.402344 547.972656 C 1185.824219 549.132812 1184.421875 550.210938 1182.765625 551.195312 C 1185.675781 551.53125 1188.332031 551.773438 1190.894531 552.269531 Z M 1178.054688 563.78125 C 1159.042969 577.960938 1139.929688 592.824219 1130.933594 611.648438 C 1128.929688 615.972656 1127.355469 620.3125 1126.464844 624.753906 C 1124.414062 633.972656 1124.664062 644.023438 1127.300781 654.65625 C 1129.953125 664.859375 1133.398438 674.050781 1138.171875 681.992188 C 1138.679688 682.179688 1139.109375 682.1875 1139.621094 682.375 C 1135.90625 673.515625 1133.242188 663.742188 1131.71875 653.226562 C 1130.136719 641.679688 1131.105469 631.058594 1134.195312 621.351562 C 1135.6875 616.839844 1137.785156 612.257812 1140.472656 608.035156 C 1150.527344 591.472656 1167.960938 578.453125 1185.128906 565.769531 C 1182.738281 565.191406 1180.441406 564.359375 1178.054688 563.78125 Z M 1139.0625 683.90625 C 1139.144531 684.078125 1139.226562 684.253906 1139.308594 684.425781 C 1139.816406 684.613281 1140.074219 684.703125 1140.582031 684.890625 C 1140.503906 684.714844 1140.421875 684.542969 1140.339844 684.367188 C 1140.003906 684.101562 1139.492188 683.917969 1139.0625 683.90625 Z M 1140.628906 686.351562 C 1140.710938 686.523438 1140.710938 686.523438 1140.792969 686.699219 C 1141.046875 686.792969 1141.304688 686.882812 1141.558594 686.976562 C 1141.476562 686.804688 1141.476562 686.804688 1141.394531 686.628906 C 1141.140625 686.535156 1140.886719 686.445312 1140.628906 686.351562 Z M 1087.535156 622.605469 C 1087.503906 627.070312 1088.25 631.382812 1089.421875 635.707031 C 1091.769531 644.355469 1096.863281 652.992188 1103.789062 660.558594 C 1109.800781 667.074219 1116.851562 673.097656 1124.625 677.941406 C 1118.753906 672.632812 1113.164062 666.5625 1108.359375 659.90625 C 1102.3125 651.503906 1098.433594 642.300781 1097.132812 633.164062 C 1096.5625 628.769531 1096.339844 624.210938 1096.800781 619.757812 C 1099.878906 590.988281 1128.277344 569.246094 1146.347656 558.046875 C 1143.949219 557.894531 1141.375 557.828125 1138.800781 557.761719 C 1113.308594 570.308594 1087.5 594.867188 1087.535156 622.605469 Z M 1158.417969 553.042969 C 1156.503906 553.9375 1153.976562 555.328125 1151.183594 557.058594 C 1153.664062 557.382812 1156.144531 557.703125 1158.628906 558.027344 C 1161.863281 555.882812 1165.097656 553.734375 1168.238281 551.84375 C 1165.664062 551.773438 1163.171875 551.878906 1160.503906 552.066406 C 1159.726562 552.21875 1159.113281 552.71875 1158.417969 553.042969 Z M 1172.910156 550.507812 C 1175.484375 550.574219 1178.140625 550.816406 1180.621094 551.140625 C 1182.71875 549.734375 1184.5625 548.238281 1186.660156 546.835938 C 1188.582031 545.511719 1190.253906 544.097656 1192.003906 542.855469 C 1189.164062 543.125 1186.320312 543.390625 1183.5625 543.832031 C 1180.421875 545.726562 1177.011719 547.953125 1172.910156 550.507812 Z M 1193.9375 541.101562 C 1197.183594 538.527344 1200 535.941406 1202.46875 533.515625 C 1203.082031 533.015625 1203.617188 532.34375 1204.230469 531.84375 C 1201.460938 532.714844 1198.597656 533.84375 1195.558594 535.050781 C 1193.808594 536.292969 1191.964844 537.789062 1189.867188 539.191406 C 1188.730469 539.933594 1187.503906 540.933594 1186.191406 541.757812 C 1188.859375 541.570312 1191.273438 541.289062 1193.9375 541.101562 Z M 1203.558594 534.488281 C 1201.355469 536.578125 1198.980469 538.746094 1196.429688 540.996094 C 1199.179688 540.984375 1202.019531 540.714844 1205.023438 540.796875 C 1209.335938 536.875 1213.042969 533.023438 1215.984375 528.894531 C 1216.253906 528.558594 1216.34375 528.300781 1216.613281 527.964844 C 1213.410156 528.824219 1210.386719 529.601562 1207.265625 530.636719 C 1206.027344 532.0625 1204.707031 533.316406 1203.558594 534.488281 Z M 1216.472656 526.757812 L 1217.769531 526.363281 C 1221.257812 521.132812 1223.792969 516.132812 1225.726562 511.207031 C 1225.378906 511.367188 1224.941406 511.785156 1224.59375 511.949219 L 1222.574219 513.527344 C 1221 514.6875 1219.25 515.929688 1217.582031 517.34375 C 1215.25 520.972656 1212.492188 524.59375 1208.867188 528.617188 C 1211.542969 528.003906 1213.96875 527.292969 1216.472656 526.757812 Z M 1219.847656 525.816406 C 1223.046875 524.957031 1226.417969 524.019531 1230.046875 523.167969 C 1233.570312 516.652344 1235.550781 510.003906 1236.75 503.511719 C 1233.34375 505.738281 1230.539062 507.898438 1227.828125 509.800781 C 1225.972656 514.902344 1223.425781 520.332031 1219.847656 525.816406 Z M 1238.328125 502.351562 C 1237.378906 508.9375 1235.484375 515.757812 1231.867188 522.53125 C 1235.242188 521.589844 1238.789062 520.566406 1242.765625 519.554688 C 1245.882812 512.167969 1247.28125 504.734375 1247.394531 497.269531 C 1244.171875 498.984375 1241.121094 500.621094 1238.328125 502.351562 Z M 1244.019531 520.878906 C 1241.089844 527.753906 1236.976562 533.914062 1231.226562 540.203125 C 1230.789062 540.621094 1230.253906 541.292969 1229.816406 541.710938 C 1233.246094 541.800781 1236.773438 541.636719 1240.550781 541.566406 C 1246.914062 534.777344 1252.011719 527.101562 1255.425781 518.089844 C 1251.195312 519.007812 1247.394531 519.9375 1244.019531 520.878906 Z M 1208.871094 557.640625 C 1207.675781 557.351562 1206.738281 557.15625 1205.542969 556.867188 C 1204.09375 556.484375 1202.644531 556.101562 1201.019531 555.800781 C 1196.8125 559.039062 1192.429688 562.359375 1188.140625 565.421875 C 1190.355469 566.082031 1192.652344 566.914062 1194.695312 567.65625 C 1199.503906 564.347656 1204.316406 561.042969 1208.871094 557.640625 Z M 1186.738281 566.5 C 1169.574219 579.183594 1151.710938 592.191406 1141.738281 608.929688 C 1139.050781 613.152344 1137.128906 617.652344 1135.550781 621.988281 C 1132.300781 631.347656 1131.503906 641.886719 1133.007812 653.261719 C 1134.4375 664.035156 1137.261719 674.15625 1141.230469 683.105469 C 1141.742188 683.289062 1142.425781 683.394531 1142.9375 683.578125 C 1139.601562 673.273438 1137.742188 662.488281 1137.25 651.914062 C 1136.882812 639.796875 1138.8125 628.515625 1143.367188 618.761719 C 1145.460938 614.179688 1148.070312 609.785156 1151.277344 605.316406 C 1161.878906 590.828125 1177.804688 579.574219 1193.292969 568.734375 C 1191.25 567.992188 1188.953125 567.160156 1186.738281 566.5 Z M 1142.136719 684.585938 C 1142.300781 684.933594 1142.378906 685.109375 1142.542969 685.457031 C 1143.054688 685.640625 1143.5625 685.828125 1143.992188 685.839844 C 1143.832031 685.492188 1143.75 685.316406 1143.761719 684.886719 C 1143.078125 684.785156 1142.648438 684.773438 1142.136719 684.585938 Z M 1143.355469 687.195312 C 1143.4375 687.371094 1143.519531 687.542969 1143.679688 687.890625 C 1144.015625 688.15625 1144.445312 688.167969 1144.78125 688.4375 C 1144.703125 688.261719 1144.539062 687.914062 1144.457031 687.742188 C 1144.121094 687.472656 1143.609375 687.289062 1143.355469 687.195312 Z M 1144.828125 689.898438 C 1144.910156 690.070312 1144.910156 690.070312 1144.992188 690.246094 C 1145.246094 690.335938 1145.503906 690.429688 1145.757812 690.523438 C 1145.675781 690.347656 1145.59375 690.175781 1145.59375 690.175781 C 1145.339844 690.082031 1145.085938 689.988281 1144.828125 689.898438 Z M 1146.304688 692.597656 C 1146.304688 692.597656 1146.558594 692.691406 1146.558594 692.691406 C 1146.304688 692.597656 1146.304688 692.597656 1146.304688 692.597656 Z M 1114.765625 560.730469 C 1086.058594 568.210938 1059 597.804688 1066.007812 628.21875 C 1069.085938 641.609375 1078.371094 654.21875 1092.035156 663.511719 C 1098.53125 667.890625 1105.652344 671.34375 1112.875 674.109375 C 1107.042969 670.691406 1101.730469 667.03125 1096.9375 663.125 C 1088.796875 656.125 1082.574219 647.804688 1078.859375 638.949219 C 1077.003906 634.519531 1075.75 630.019531 1075.351562 625.546875 C 1071.984375 597.035156 1096.21875 570.457031 1123.054688 558.972656 C 1120.292969 559.417969 1117.359375 559.941406 1114.765625 560.730469 Z M 1138.753906 556.300781 C 1140.144531 555.648438 1141.535156 555 1142.925781 554.347656 C 1140.246094 554.964844 1137.394531 555.660156 1134.796875 556.453125 C 1136.003906 556.3125 1137.464844 556.265625 1138.753906 556.300781 Z M 1162.914062 548.609375 C 1160.488281 549.320312 1158.324219 550.121094 1155.980469 551.003906 C 1157.359375 550.78125 1158.648438 550.816406 1160.027344 550.59375 C 1161.941406 549.699219 1163.597656 548.714844 1165.511719 547.820312 C 1164.558594 548.050781 1163.78125 548.203125 1162.914062 548.609375 Z M 1177.742188 543.164062 C 1179.46875 542.78125 1181.277344 542.570312 1183.003906 542.1875 C 1185.277344 540.703125 1187.375 539.296875 1189.21875 537.800781 C 1189.566406 537.636719 1189.65625 537.382812 1190.003906 537.222656 C 1186.085938 539.261719 1182.089844 541.132812 1177.742188 543.164062 Z M 1211.519531 522.507812 C 1208.007812 525.417969 1204.148438 528.492188 1199.847656 531.984375 C 1202.015625 531.183594 1204.183594 530.382812 1206.433594 529.757812 C 1209.257812 526.738281 1211.660156 523.710938 1213.710938 520.847656 C 1212.839844 521.253906 1212.226562 521.753906 1211.519531 522.507812 Z M 1229.546875 496.707031 L 1229.015625 497.382812 C 1228.65625 497.972656 1228.296875 498.566406 1228.109375 499.074219 C 1227.035156 500.851562 1226.035156 502.796875 1225.039062 504.746094 C 1223.417969 507.625 1221.703125 510.753906 1219.816406 513.96875 C 1220.429688 513.46875 1221.042969 512.96875 1221.566406 512.726562 L 1223.582031 511.148438 C 1224.371094 510.566406 1225.160156 509.988281 1225.949219 509.40625 C 1226.121094 509.328125 1226.296875 509.246094 1226.386719 508.988281 C 1227.960938 504.652344 1228.933594 500.386719 1229.734375 496.199219 C 1229.734375 496.199219 1229.640625 496.453125 1229.546875 496.707031 Z M 1234.421875 481.296875 C 1234.132812 482.492188 1233.933594 483.429688 1233.644531 484.625 C 1233.4375 485.992188 1233.230469 487.359375 1232.765625 488.636719 C 1234.285156 486.445312 1235.800781 484.253906 1237.75 482.070312 C 1237.714844 480.179688 1237.675781 478.292969 1237.640625 476.402344 C 1237.523438 474.335938 1237.582031 472.191406 1237.546875 470.300781 C 1237.464844 470.128906 1237.636719 470.046875 1237.558594 469.875 C 1236.261719 473.445312 1235.125 477.363281 1234.421875 481.296875 Z M 1239.128906 462.359375 C 1240.21875 460.15625 1241.5625 458.042969 1243.082031 455.851562 C 1242.777344 454.296875 1242.570312 452.488281 1242.441406 450.855469 C 1242.148438 448.871094 1241.949219 446.632812 1241.671875 444.222656 C 1239.878906 450.355469 1239.371094 456.527344 1239.128906 462.359375 Z M 1244.230469 418.875 C 1242.960938 424.765625 1242.453125 430.933594 1242.640625 436.777344 C 1243.554688 434.65625 1244.644531 432.453125 1245.988281 430.339844 C 1245.234375 426.457031 1244.734375 422.664062 1244.230469 418.875 Z M 1248.441406 441.480469 C 1247.664062 438.457031 1247.058594 435.347656 1246.28125 432.324219 C 1244.75 434.945312 1243.652344 437.578125 1242.632812 440.382812 C 1242.796875 443.910156 1243.132812 447.351562 1243.566406 450.539062 C 1243.703125 451.746094 1243.84375 452.953125 1243.984375 454.15625 C 1245.675781 451.882812 1247.703125 449.878906 1249.90625 447.789062 C 1249.613281 445.804688 1249.070312 443.730469 1248.441406 441.480469 Z M 1250.859375 450.734375 C 1250.695312 450.386719 1250.707031 449.957031 1250.542969 449.609375 C 1248.167969 451.777344 1246.222656 453.960938 1244.53125 456.234375 C 1244.902344 458.390625 1245.355469 460.71875 1245.636719 463.132812 C 1246.148438 466.496094 1246.660156 469.855469 1247.253906 473.394531 C 1249.617188 471.652344 1252.238281 470.003906 1255.285156 468.367188 C 1253.984375 462.410156 1252.507812 456.53125 1250.859375 450.734375 Z M 1255.761719 469.839844 C 1252.710938 471.476562 1250.09375 473.125 1247.554688 474.945312 C 1248.578125 481.671875 1249.171875 488.382812 1249.085938 494.992188 C 1252.039062 493.613281 1255.25 492.324219 1258.800781 491.300781 C 1258.472656 484.25 1257.378906 476.925781 1255.761719 469.839844 Z M 1256.097656 515.445312 C 1258.355469 508.035156 1259.246094 500.414062 1258.847656 492.761719 C 1255.207031 494.039062 1251.996094 495.328125 1249.039062 496.710938 C 1248.753906 504.257812 1247.609375 511.785156 1244.492188 519.171875 C 1247.867188 518.230469 1251.671875 517.300781 1255.726562 516.464844 C 1255.996094 516.128906 1256.085938 515.875 1256.097656 515.445312 Z M 1306.257812 492.214844 C 1296.957031 506.308594 1276.851562 513.160156 1261.652344 516.449219 C 1260.101562 516.753906 1258.371094 517.136719 1256.898438 517.613281 C 1253.738281 526.714844 1248.640625 534.394531 1242.359375 541.355469 C 1248.378906 541.085938 1254.917969 540.570312 1262.070312 539.558594 C 1283.523438 536.949219 1300.515625 527.527344 1307.722656 514.835938 C 1308.359375 513.480469 1309.167969 512.042969 1309.804688 510.683594 C 1309.722656 510.511719 1309.644531 510.335938 1309.734375 510.082031 C 1308.585938 504.898438 1307.398438 497.828125 1307.417969 490.613281 C 1307.058594 491.207031 1306.617188 491.625 1306.257812 492.214844 Z M 1311.921875 498.890625 C 1311.550781 496.734375 1311.175781 494.578125 1310.980469 492.339844 C 1310.523438 490.011719 1310.417969 487.515625 1310.140625 485.105469 C 1309.769531 486.125 1309.316406 486.972656 1308.867188 487.820312 C 1308.5 495.195312 1309.511719 502.347656 1310.730469 508.132812 C 1311.390625 505.917969 1312.050781 503.703125 1312.375 501.222656 C 1312.050781 500.527344 1312.074219 499.667969 1311.921875 498.890625 Z M 1309.246094 483.191406 C 1309.429688 482.683594 1309.710938 481.917969 1309.894531 481.40625 C 1309.824219 480.804688 1309.929688 480.121094 1309.941406 479.691406 C 1309.570312 480.710938 1309.363281 482.078125 1309.246094 483.191406 Z M 1312.410156 480.441406 C 1312.257812 479.667969 1312.363281 478.980469 1312.210938 478.207031 C 1311.921875 479.398438 1311.550781 480.421875 1311.261719 481.613281 C 1311.335938 485.394531 1311.671875 488.839844 1312.183594 492.199219 C 1312.242188 493.234375 1312.558594 494.359375 1312.617188 495.390625 C 1313.007812 490.332031 1312.539062 485.253906 1312.410156 480.441406 Z M 1314.097656 517.152344 C 1313.945312 513.199219 1313.363281 509.234375 1312.863281 505.441406 C 1312.472656 507.320312 1311.824219 509.105469 1311.265625 510.636719 C 1311.8125 512.714844 1312.183594 514.871094 1312.730469 516.945312 C 1313.195312 518.847656 1313.660156 520.746094 1314.125 522.648438 C 1314.171875 520.933594 1314.136719 519.042969 1314.097656 517.152344 Z M 1205.664062 571.640625 C 1207.960938 572.472656 1210.339844 573.480469 1212.71875 574.488281 C 1229.117188 581.019531 1246.105469 587.910156 1263.777344 588.550781 C 1282.132812 589.292969 1305.621094 581.070312 1313.183594 561.4375 C 1316.957031 551.832031 1316.375 541.511719 1314.246094 531.066406 C 1313.574219 533.710938 1312.824219 536.183594 1311.640625 538.640625 C 1302.988281 557.300781 1279.953125 564.675781 1262.933594 565.429688 C 1247.117188 566.039062 1233.1875 563.4375 1220.050781 560.257812 C 1214.796875 563.980469 1209.46875 567.53125 1204.136719 571.082031 C 1204.644531 571.269531 1205.15625 571.453125 1205.664062 571.640625 Z M 1152.722656 615.660156 C 1163.273438 596.535156 1182.25 583.640625 1201.121094 571.433594 C 1199.078125 570.691406 1197.210938 569.871094 1195.253906 569.300781 C 1179.59375 580.222656 1163.320312 591.640625 1152.714844 606.128906 C 1149.425781 610.421875 1146.992188 614.734375 1144.898438 619.316406 C 1140.519531 628.988281 1138.601562 639.84375 1138.882812 651.785156 C 1139.285156 662.617188 1141.402344 673.492188 1144.734375 683.796875 C 1145.417969 683.902344 1145.929688 684.085938 1146.613281 684.191406 C 1141.765625 662.941406 1140.546875 637.664062 1152.722656 615.660156 Z M 1146.914062 685.746094 C 1146.40625 685.558594 1145.71875 685.457031 1145.210938 685.269531 C 1145.371094 685.617188 1145.535156 685.964844 1145.523438 686.394531 C 1146.035156 686.582031 1146.542969 686.765625 1147.054688 686.949219 C 1147.066406 686.523438 1147.078125 686.09375 1146.914062 685.746094 Z M 1147.613281 688.597656 C 1147.101562 688.410156 1146.589844 688.226562 1146.164062 688.214844 C 1146.324219 688.5625 1146.40625 688.738281 1146.570312 689.085938 C 1147.078125 689.269531 1147.414062 689.535156 1147.925781 689.722656 C 1147.9375 689.292969 1147.773438 688.945312 1147.613281 688.597656 Z M 1148.484375 691.367188 C 1148.226562 691.273438 1147.71875 691.089844 1147.460938 690.996094 C 1147.542969 691.171875 1147.625 691.34375 1147.789062 691.691406 C 1148.125 691.960938 1148.378906 692.050781 1148.890625 692.238281 C 1148.554688 691.96875 1148.390625 691.621094 1148.484375 691.367188 Z M 1149.097656 694.046875 C 1148.84375 693.953125 1148.589844 693.859375 1148.332031 693.769531 C 1148.414062 693.941406 1148.496094 694.117188 1148.578125 694.289062 C 1148.832031 694.382812 1148.914062 694.554688 1149.25 694.824219 C 1149.261719 694.394531 1149.179688 694.21875 1149.097656 694.046875 Z M 1149.890625 696.644531 C 1149.96875 696.816406 1149.96875 696.816406 1149.890625 696.644531 Z M 1149.890625 696.644531 " fill-opacity="1" fill-rule="nonzero"/></g></g></g></svg>